<svg width="972" height="650" viewBox="0 0 972 650" fill="none" xmlns="http://www.w3.org/2000/svg">
<g clip-path="url(#clip0_809_25)">
<path d="M972 0H0V650H972V0Z" fill="#B22234"/>
<path d="M0 75H972ZM972 175H0ZM0 275H972ZM972 375H0ZM0 475H972ZM972 575H0Z" fill="black"/>
<path d="M0 75H972M972 175H0M0 275H972M972 375H0M0 475H972M972 575H0" stroke="white" stroke-width="50"/>
<path d="M494 0H0V350H494V0Z" fill="#3C3B6E"/>
<path d="M41.1676 15L52.9233 51.1803L22.1465 28.8197H60.1887L29.4119 51.1803L41.1676 15Z" fill="white"/>
<path d="M41.1676 85L52.9233 121.18L22.1465 98.8197H60.1887L29.4119 121.18L41.1676 85Z" fill="white"/>
<path d="M41.1676 155L52.9233 191.18L22.1465 168.82H60.1887L29.4119 191.18L41.1676 155Z" fill="white"/>
<path d="M41.1676 225L52.9233 261.18L22.1465 238.82H60.1887L29.4119 261.18L41.1676 225Z" fill="white"/>
<path d="M41.1676 295L52.9233 331.18L22.1465 308.82H60.1887L29.4119 331.18L41.1676 295Z" fill="white"/>
<path d="M82.3336 50L94.0893 86.1803L63.3125 63.8197H101.355L70.5779 86.1803L82.3336 50Z" fill="white"/>
<path d="M82.3336 120L94.0893 156.18L63.3125 133.82H101.355L70.5779 156.18L82.3336 120Z" fill="white"/>
<path d="M82.3336 190L94.0893 226.18L63.3125 203.82H101.355L70.5779 226.18L82.3336 190Z" fill="white"/>
<path d="M82.3336 260L94.0893 296.18L63.3125 273.82H101.355L70.5779 296.18L82.3336 260Z" fill="white"/>
<path d="M123.502 15L135.257 51.1803L104.48 28.8197H142.523L111.746 51.1803L123.502 15Z" fill="white"/>
<path d="M123.502 85L135.257 121.18L104.48 98.8197H142.523L111.746 121.18L123.502 85Z" fill="white"/>
<path d="M123.502 155L135.257 191.18L104.48 168.82H142.523L111.746 191.18L123.502 155Z" fill="white"/>
<path d="M123.502 225L135.257 261.18L104.48 238.82H142.523L111.746 261.18L123.502 225Z" fill="white"/>
<path d="M123.502 295L135.257 331.18L104.48 308.82H142.523L111.746 331.18L123.502 295Z" fill="white"/>
<path d="M164.668 50L176.423 86.1803L145.646 63.8197H183.689L152.912 86.1803L164.668 50Z" fill="white"/>
<path d="M164.668 120L176.423 156.18L145.646 133.82H183.689L152.912 156.18L164.668 120Z" fill="white"/>
<path d="M164.668 190L176.423 226.18L145.646 203.82H183.689L152.912 226.18L164.668 190Z" fill="white"/>
<path d="M164.668 260L176.423 296.18L145.646 273.82H183.689L152.912 296.18L164.668 260Z" fill="white"/>
<path d="M205.834 15L217.589 51.1803L186.812 28.8197H224.855L194.078 51.1803L205.834 15Z" fill="white"/>
<path d="M205.834 85L217.589 121.18L186.812 98.8197H224.855L194.078 121.18L205.834 85Z" fill="white"/>
<path d="M205.834 155L217.589 191.18L186.812 168.82H224.855L194.078 191.18L205.834 155Z" fill="white"/>
<path d="M205.834 225L217.589 261.18L186.812 238.82H224.855L194.078 261.18L205.834 225Z" fill="white"/>
<path d="M205.834 295L217.589 331.18L186.812 308.82H224.855L194.078 331.18L205.834 295Z" fill="white"/>
<path d="M247 50L258.755 86.1803L227.979 63.8197H266.021L235.244 86.1803L247 50Z" fill="white"/>
<path d="M247 120L258.755 156.18L227.979 133.82H266.021L235.244 156.18L247 120Z" fill="white"/>
<path d="M247 190L258.755 226.18L227.979 203.82H266.021L235.244 226.18L247 190Z" fill="white"/>
<path d="M247 260L258.755 296.18L227.979 273.82H266.021L235.244 296.18L247 260Z" fill="white"/>
<path d="M288.168 15L299.923 51.1803L269.146 28.8197H307.189L276.412 51.1803L288.168 15Z" fill="white"/>
<path d="M288.168 85L299.923 121.18L269.146 98.8197H307.189L276.412 121.18L288.168 85Z" fill="white"/>
<path d="M288.168 155L299.923 191.18L269.146 168.82H307.189L276.412 191.18L288.168 155Z" fill="white"/>
<path d="M288.168 225L299.923 261.18L269.146 238.82H307.189L276.412 261.18L288.168 225Z" fill="white"/>
<path d="M288.168 295L299.923 331.18L269.146 308.82H307.189L276.412 331.18L288.168 295Z" fill="white"/>
<path d="M329.334 50L341.089 86.1803L310.312 63.8197H348.355L317.578 86.1803L329.334 50Z" fill="white"/>
<path d="M329.334 120L341.089 156.18L310.312 133.82H348.355L317.578 156.18L329.334 120Z" fill="white"/>
<path d="M329.334 190L341.089 226.18L310.312 203.82H348.355L317.578 226.18L329.334 190Z" fill="white"/>
<path d="M329.334 260L341.089 296.18L310.312 273.82H348.355L317.578 296.18L329.334 260Z" fill="white"/>
<path d="M370.502 15L382.257 51.1803L351.48 28.8197H389.523L358.746 51.1803L370.502 15Z" fill="white"/>
<path d="M370.502 85L382.257 121.18L351.48 98.8197H389.523L358.746 121.18L370.502 85Z" fill="white"/>
<path d="M370.502 155L382.257 191.18L351.48 168.82H389.523L358.746 191.18L370.502 155Z" fill="white"/>
<path d="M370.502 225L382.257 261.18L351.48 238.82H389.523L358.746 261.18L370.502 225Z" fill="white"/>
<path d="M370.502 295L382.257 331.18L351.48 308.82H389.523L358.746 331.18L370.502 295Z" fill="white"/>
<path d="M411.668 50L423.423 86.1803L392.646 63.8197H430.689L399.912 86.1803L411.668 50Z" fill="white"/>
<path d="M411.668 120L423.423 156.18L392.646 133.82H430.689L399.912 156.18L411.668 120Z" fill="white"/>
<path d="M411.668 190L423.423 226.18L392.646 203.82H430.689L399.912 226.18L411.668 190Z" fill="white"/>
<path d="M411.668 260L423.423 296.18L392.646 273.82H430.689L399.912 296.18L411.668 260Z" fill="white"/>
<path d="M452.834 15L464.589 51.1803L433.812 28.8197H471.855L441.078 51.1803L452.834 15Z" fill="white"/>
<path d="M452.834 85L464.589 121.18L433.812 98.8197H471.855L441.078 121.18L452.834 85Z" fill="white"/>
<path d="M452.834 155L464.589 191.18L433.812 168.82H471.855L441.078 191.18L452.834 155Z" fill="white"/>
<path d="M452.834 225L464.589 261.18L433.812 238.82H471.855L441.078 261.18L452.834 225Z" fill="white"/>
<path d="M452.834 295L464.589 331.18L433.812 308.82H471.855L441.078 331.18L452.834 295Z" fill="white"/>
</g>
<defs>
<clipPath id="clip0_809_25">
<rect width="972" height="650" rx="52" fill="white"/>
</clipPath>
</defs>
</svg>
